<svg width="40" height="40" viewBox="0 0 40 40" fill="none" xmlns="http://www.w3.org/2000/svg">
<circle cx="20" cy="20" r="20" fill="#205065"/>
<path fill-rule="evenodd" clip-rule="evenodd" d="M11.2929 26.8492C10.9024 27.2398 10.9024 27.8729 11.2929 28.2635C11.6834 28.654 12.3166 28.654 12.7071 28.2635L19.7782 21.1924L26.8493 28.2635C27.2398 28.654 27.8729 28.654 28.2635 28.2635C28.654 27.8729 28.654 27.2398 28.2635 26.8492L21.1924 19.7782L28.2635 12.7071C28.654 12.3166 28.654 11.6834 28.2635 11.2929C27.8729 10.9024 27.2398 10.9024 26.8492 11.2929L19.7782 18.364L12.7071 11.2929C12.3166 10.9024 11.6834 10.9024 11.2929 11.2929C10.9024 11.6834 10.9024 12.3166 11.2929 12.7071L18.364 19.7782L11.2929 26.8492Z" fill="white"/>
</svg>
