<svg width="18" height="18" viewBox="0 0 18 18" fill="none" xmlns="http://www.w3.org/2000/svg">
<path fill-rule="evenodd" clip-rule="evenodd" d="M0.292893 15.8492C-0.0976311 16.2398 -0.0976311 16.8729 0.292893 17.2635C0.683417 17.654 1.31658 17.654 1.70711 17.2635L8.77818 10.1924L15.8493 17.2635C16.2398 17.654 16.8729 17.654 17.2635 17.2635C17.654 16.8729 17.654 16.2398 17.2635 15.8492L10.1924 8.77817L17.2635 1.70711C17.654 1.31658 17.654 0.683417 17.2635 0.292893C16.8729 -0.0976312 16.2398 -0.0976309 15.8492 0.292893L8.77818 7.36395L1.70713 0.292895C1.3166 -0.0976293 0.683436 -0.0976296 0.292912 0.292895C-0.0976125 0.683419 -0.0976121 1.31658 0.292912 1.70711L7.36397 8.77817L0.292893 15.8492Z" fill="white"/>
</svg>
