<svg width="42" height="43" viewBox="0 0 42 43" fill="none" xmlns="http://www.w3.org/2000/svg">
<ellipse cx="21" cy="21.9248" rx="21" ry="21.0315" fill="white"/>
<path d="M15 27.2664C15 27.4434 15.0702 27.6133 15.1953 27.7385C15.3203 27.8637 15.4899 27.934 15.6667 27.934C15.8435 27.934 16.013 27.8637 16.1381 27.7385C16.2631 27.6133 16.3333 27.4434 16.3333 27.2664V16.5837C16.3333 16.4066 16.2631 16.2368 16.1381 16.1116C16.013 15.9864 15.8435 15.916 15.6667 15.916C15.4899 15.916 15.3203 15.9864 15.1953 16.1116C15.0702 16.2368 15 16.4066 15 16.5837V27.2664Z" fill="#329ECB"/>
<path d="M27 26.6341C27 27.5849 25.9253 28.1377 25.1533 27.5835L18.1733 22.5714C18.0186 22.4602 17.8934 22.3128 17.8086 22.142C17.7238 21.9713 17.6821 21.7823 17.687 21.5916C17.6919 21.401 17.7434 21.2145 17.8369 21.0483C17.9304 20.8822 18.063 20.7414 18.2233 20.6385L25.2033 16.1544C25.98 15.655 27 16.2138 27 17.1379V26.6341Z" fill="#329ECB"/>
</svg>
