<svg width="42" height="43" viewBox="0 0 42 43" fill="none" xmlns="http://www.w3.org/2000/svg">
<ellipse cx="21" cy="21.9248" rx="21" ry="21.0315" fill="white"/>
<path d="M27 16.5834C27 16.4064 26.9298 16.2365 26.8047 16.1113C26.6797 15.9861 26.5101 15.9158 26.3333 15.9158C26.1565 15.9158 25.9869 15.9861 25.8619 16.1113C25.7369 16.2365 25.6667 16.4064 25.6667 16.5834V27.2661C25.6667 27.4432 25.7369 27.613 25.8619 27.7382C25.9869 27.8634 26.1565 27.9338 26.3333 27.9338C26.5101 27.9338 26.6797 27.8634 26.8047 27.7382C26.9298 27.613 27 27.4432 27 27.2661V16.5834Z" fill="#329ECB"/>
<path d="M15 17.2156C15 16.2649 16.0747 15.712 16.8467 16.2662L23.8267 21.2784C23.9814 21.3895 24.1066 21.5369 24.1914 21.7077C24.2762 21.8785 24.3179 22.0674 24.313 22.2581C24.3081 22.4487 24.2566 22.6353 24.1631 22.8014C24.0696 22.9676 23.9369 23.1083 23.7767 23.2113L16.7967 27.6953C16.02 28.1941 15 27.6359 15 26.7119V17.2156Z" fill="#329ECB"/>
</svg>
